<svg width="117" height="117" viewBox="0 0 117 117" fill="none" xmlns="http://www.w3.org/2000/svg">
<g clip-path="url(#clip0_107_507)">
<path d="M116.401 58.3131C116.41 65.7897 114.975 73.1977 112.174 80.1298C112.167 80.1453 112.162 80.1591 112.155 80.1746V80.1763C110.272 84.818 107.795 89.1961 104.787 93.2009C104.206 93.9758 103.608 94.7346 102.991 95.4773C102.765 95.7493 102.536 96.0197 102.307 96.2866C101.128 97.6555 99.8866 98.967 98.5843 100.221C98.2812 100.514 97.9747 100.803 97.6647 101.089C97.5924 101.156 97.5201 101.222 97.4478 101.289C95.9309 102.675 94.3416 103.98 92.6867 105.198C91.576 106.019 90.4361 106.799 89.2669 107.538C89.0104 107.701 88.7521 107.862 88.4921 108.02C88.0409 108.295 87.5858 108.564 87.1266 108.827C86.5274 109.172 85.9207 109.505 85.3065 109.828C85.0586 109.96 84.8089 110.088 84.5592 110.215C84.1942 110.403 83.8274 110.584 83.4572 110.761C83.3935 110.792 83.3298 110.823 83.266 110.852C83.025 110.969 82.7805 111.083 82.536 111.197C79.3515 112.665 76.0397 113.841 72.6418 114.708C72.6228 114.713 72.6056 114.716 72.5867 114.721C72.3646 114.778 72.1407 114.833 71.9169 114.887C71.7498 114.928 71.5811 114.968 71.4123 115.006C71.3915 115.012 71.3702 115.018 71.3486 115.021C71.0025 115.102 70.6564 115.179 70.3069 115.25C70.1106 115.291 69.9143 115.333 69.718 115.372C69.5992 115.398 69.4786 115.421 69.3598 115.443C69.21 115.472 69.0619 115.5 68.9121 115.529C68.8295 115.546 68.7468 115.56 68.6624 115.574C68.473 115.608 68.2836 115.643 68.0959 115.675C67.7756 115.731 67.4519 115.784 67.1299 115.832C66.8957 115.868 66.6633 115.903 66.4291 115.935C66.1536 115.975 65.8781 116.011 65.6008 116.046C65.5251 116.058 65.4493 116.066 65.3736 116.075C65.2754 116.087 65.1773 116.099 65.0791 116.111C64.8811 116.135 64.6831 116.158 64.4833 116.178C64.38 116.19 64.2784 116.201 64.1751 116.211C63.9788 116.232 63.7825 116.251 63.5862 116.268C63.3331 116.292 63.08 116.313 62.8251 116.333C62.5152 116.357 62.207 116.38 61.8953 116.399C61.6955 116.411 61.4958 116.423 61.2943 116.433C60.7812 116.461 60.2681 116.48 59.7515 116.493C59.4949 116.5 59.2366 116.505 58.9783 116.509H58.9732C58.7166 116.512 58.4583 116.514 58.2 116.514C55.5825 116.515 52.9679 116.34 50.3739 115.991C48.4712 115.736 46.5989 115.39 44.757 114.954C44.683 114.937 44.6089 114.919 44.5366 114.901C44.3506 114.858 44.1664 114.811 43.9821 114.765C43.8185 114.723 43.6567 114.68 43.4931 114.637C39.2772 113.54 35.199 111.969 31.3363 109.955C31.3174 109.945 31.2967 109.935 31.2778 109.924C31.1659 109.866 31.0557 109.809 30.9455 109.749C30.7027 109.621 30.461 109.491 30.2205 109.359C28.8516 108.607 27.5177 107.802 26.2188 106.945C25.8847 106.727 25.5541 106.504 25.227 106.279C25.1219 106.207 25.0186 106.134 24.9153 106.062C24.8068 105.986 24.6983 105.91 24.5916 105.835C24.3075 105.633 24.0251 105.429 23.7444 105.223C22.5821 104.369 21.4542 103.473 20.3608 102.535C16.4852 99.2163 13.0605 95.4043 10.1739 91.1966C9.16661 89.7295 8.22644 88.2154 7.35342 86.6542C2.51535 77.9928 -0.0169943 68.234 -0.000900327 58.3131C-0.000900327 26.17 26.0569 0.112122 58.2 0.112122C90.3431 0.112122 116.401 26.17 116.401 58.3131Z" fill="#03A045"/>
<path opacity="0.2" d="M67.5596 114.901C67.7455 114.858 67.9298 114.811 68.114 114.765C68.2776 114.723 68.4395 114.68 68.6031 114.637C68.6117 114.294 68.6237 113.917 68.6358 113.509C68.7374 110.313 68.9767 105.168 69.5415 98.9693C69.5725 98.637 69.6035 98.3024 69.6345 97.9655C69.836 95.8647 70.0719 93.6555 70.3543 91.3653C70.3629 91.2896 70.3732 91.2155 70.3818 91.1398C70.6108 89.2835 70.8708 87.3774 71.1636 85.435C71.3685 84.0765 71.59 82.7029 71.8282 81.3145C71.8454 81.2181 71.8627 81.1199 71.8799 81.0235C71.9488 80.6223 72.0193 80.2228 72.0917 79.8199C72.2931 78.6989 72.5084 77.571 72.734 76.4432C73.5278 72.4759 74.4731 68.4845 75.6009 64.6015C76.7466 60.5746 78.1577 56.6279 79.8248 52.7874C81.1178 49.804 82.658 46.9339 84.4292 44.2071C84.4551 44.1675 84.4809 44.1296 84.5067 44.09C86.771 40.6789 89.3591 37.7843 92.3139 35.6199L91.7009 34.783C88.8701 36.8579 86.2734 39.6187 83.9109 43.0655C83.8989 43.0827 83.8885 43.0982 83.8765 43.1154C82.1 45.7498 80.5493 48.5297 79.2411 51.4254C77.4894 55.2986 76.0118 59.2901 74.8192 63.3704C73.6896 67.162 72.6765 71.27 71.78 75.6941C71.4649 77.2525 71.1641 78.8493 70.8777 80.4845C70.8295 80.7635 70.7813 81.0424 70.7331 81.3231C70.7331 81.3265 70.7314 81.3317 70.7314 81.3352C70.6573 81.7656 70.5867 82.1961 70.5144 82.6318C70.3353 83.7286 70.1666 84.8169 70.0081 85.8965C69.7636 87.5599 69.5426 89.1946 69.3452 90.8005C69.2798 91.3309 69.2166 91.8572 69.1558 92.3796C69.0697 93.1165 68.9882 93.8438 68.9113 94.5612C68.8028 95.5599 68.7035 96.5374 68.6134 97.4937L68.5876 97.7571C68.5738 97.9086 68.56 98.0602 68.5462 98.21C67.8471 105.75 67.6284 111.841 67.5596 114.901Z" fill="black"/>
<path opacity="0.2" d="M80.7598 109.955C80.7787 109.945 80.7994 109.935 80.8183 109.924C81.173 109.74 81.5243 109.552 81.8756 109.359C81.9909 107.985 82.1459 106.475 82.3491 104.888C82.3921 104.56 82.4352 104.228 82.4834 103.894C82.5075 103.715 82.5333 103.534 82.5592 103.352C82.7624 101.953 83.0034 100.51 83.2927 99.0606C84.4688 93.1441 86.4214 87.0967 89.6638 83.3636C89.8377 83.1621 90.0151 82.9693 90.1993 82.7816C90.6559 82.3071 91.1518 81.8722 91.6819 81.4815L91.0689 80.6464C90.329 81.1936 89.6481 81.8163 89.037 82.5044C88.8218 82.7437 88.6117 82.9928 88.4068 83.2517C85.4227 87.0072 83.5596 92.5673 82.399 98.0722C82.096 99.5083 81.8411 100.943 81.6242 102.339C81.5691 102.704 81.5163 103.066 81.4658 103.424C81.13 105.79 80.9079 108.025 80.7598 109.955Z" fill="black"/>
<path opacity="0.2" d="M98.1044 35.5958C100.966 35.5958 103.285 33.2762 103.285 30.4148C103.285 27.5534 100.966 25.2338 98.1044 25.2338C95.243 25.2338 92.9233 27.5534 92.9233 30.4148C92.9233 33.2762 95.243 35.5958 98.1044 35.5958Z" fill="black"/>
<path opacity="0.2" d="M96.4359 80.1951C99.2973 80.1951 101.617 77.8755 101.617 75.0141C101.617 72.1527 99.2973 69.8331 96.4359 69.8331C93.5745 69.8331 91.2549 72.1527 91.2549 75.0141C91.2549 77.8755 93.5745 80.1951 96.4359 80.1951Z" fill="black"/>
<path opacity="0.2" d="M77.5357 39.1173C78.6344 45.3158 76.2091 50.9284 76.2091 50.9284C76.2091 50.9284 72.0024 46.4913 70.9038 40.2928C69.8051 34.0944 72.2304 28.4818 72.2304 28.4818C72.2304 28.4818 76.4371 32.9189 77.5357 39.1173Z" fill="black"/>
<path opacity="0.2" d="M94.754 53.8311C88.8418 55.993 82.9009 54.6056 82.9009 54.6056C82.9009 54.6056 86.5455 49.7132 92.4577 47.5513C98.3699 45.3894 104.311 46.7768 104.311 46.7768C104.311 46.7768 100.666 51.6692 94.754 53.8311Z" fill="black"/>
<path opacity="0.2" d="M95.7569 93.3253C91.6129 94.8406 87.4429 93.8521 87.4429 93.8521C87.4429 93.8521 89.9916 90.4069 94.1356 88.8916C98.2796 87.3763 102.45 88.3648 102.45 88.3648C102.45 88.3648 99.9008 91.81 95.7569 93.3253Z" fill="black"/>
<path d="M75.7578 92.4536L75.9679 92.5621C75.9473 92.7859 75.8973 92.9237 75.7578 92.4536Z" fill="#2F2E41"/>
<path d="M76.0349 92.5259C76.0366 92.55 76.0401 92.5758 76.0418 92.5999L75.9678 92.5621C75.9695 92.5397 75.9712 92.5156 75.9747 92.4915C75.9919 92.1901 75.9712 91.8337 76.0349 92.5259Z" fill="#2F2E41"/>
<path d="M53.6691 84.2882C69.2852 84.2882 81.9445 71.6289 81.9445 56.0127C81.9445 40.3966 69.2852 27.7372 53.6691 27.7372C38.0529 27.7372 25.3936 40.3966 25.3936 56.0127C25.3936 71.6289 38.0529 84.2882 53.6691 84.2882Z" fill="#2F2E41"/>
<path d="M55.9971 83.1358C65.4542 83.1358 73.1207 75.4693 73.1207 66.0122C73.1207 56.5551 65.4542 48.8887 55.9971 48.8887C46.54 48.8887 38.8735 56.5551 38.8735 66.0122C38.8735 75.4693 46.54 83.1358 55.9971 83.1358Z" fill="#FDB797"/>
<path d="M95.0963 98.8316L95.0757 98.8367L91.0929 99.7924L82.8001 101.783L81.6688 102.055L69.0574 105.08L67.9864 105.339L37.3896 112.681C35.3213 111.89 33.3004 110.98 31.3371 109.955C31.3181 109.945 31.2975 109.935 31.2785 109.924C31.1666 109.866 31.0564 109.809 30.9462 109.749C30.7034 109.621 30.4618 109.491 30.2213 109.359C28.8523 108.607 27.5184 107.802 26.2195 106.945C25.8855 106.727 25.5549 106.504 25.2277 106.279C25.1227 106.207 25.0193 106.134 24.916 106.062C24.8075 105.986 24.6991 105.91 24.5923 105.835C24.3082 105.633 24.0258 105.429 23.7451 105.223C26.7172 99.8217 33.7942 96.2315 40.8713 94.2668C46.2127 92.7825 47.3871 87.9043 47.2855 83.5633C47.2597 82.5731 47.1757 81.5854 47.0341 80.605C46.8183 79.0448 46.4751 77.5048 46.0078 76.0006L63.1323 76.5723L64.899 80.6429C64.8507 81.09 64.8351 81.5401 64.8525 81.9895C64.9868 85.3283 67.048 87.4876 69.5912 88.8806C69.9219 89.0614 70.2611 89.2301 70.6055 89.3868C74.7759 91.2827 79.6851 91.4118 79.6851 91.4118C81.18 91.2466 82.69 91.2749 84.1776 91.4962C84.5392 91.5513 84.8905 91.6173 85.2314 91.6942C87.222 92.1391 89.1025 92.9806 90.7605 94.1686C91.3938 94.6191 91.993 95.1158 92.5531 95.6546C93.5486 96.5863 94.4051 97.6563 95.0963 98.8316Z" fill="#FDB797"/>
<path d="M97.6656 101.089C97.5933 101.156 97.521 101.222 97.4487 101.289C95.9318 102.675 94.3425 103.98 92.6876 105.198C91.5769 106.019 90.437 106.799 89.2678 107.538C89.0113 107.701 88.753 107.862 88.493 108.02C88.0418 108.295 87.5867 108.564 87.1275 108.827C86.5283 109.172 85.9216 109.505 85.3074 109.828C85.0595 109.96 84.8098 110.088 84.5601 110.215C84.1951 110.403 83.8283 110.584 83.4581 110.761C83.3944 110.792 83.3307 110.823 83.2669 110.852L82.5386 110.248L91.0931 99.7924L92.8133 97.6899C92.8133 97.6899 93.5003 97.6899 95.0759 98.8367C95.9467 99.4849 96.7696 100.195 97.5382 100.962C97.5795 101.005 97.6226 101.046 97.6656 101.089Z" fill="#FDB797"/>
<path d="M97.545 100.972C97.5218 101.08 97.4896 101.186 97.4486 101.289C95.9317 102.675 94.3424 103.98 92.6875 105.198C91.2516 105.715 89.7619 106.069 88.2466 106.253C88.2466 106.253 88.3758 106.901 88.4929 108.02C88.0417 108.295 87.5866 108.564 87.1274 108.827C86.5282 109.172 85.9215 109.505 85.3073 109.828C85.0594 109.96 84.8097 110.088 84.56 110.215C84.195 110.403 83.8282 110.584 83.458 110.761C83.3943 110.792 83.3305 110.823 83.2668 110.852C83.0258 110.969 82.7813 111.083 82.5367 111.197C79.3523 112.665 76.0405 113.841 72.6426 114.708C72.6236 114.713 72.6064 114.716 72.5875 114.721C72.3654 114.778 72.1415 114.833 71.9177 114.887C71.7506 114.928 71.5819 114.968 71.4131 115.006C71.3923 115.012 71.371 115.018 71.3494 115.021C71.0033 115.102 70.6572 115.18 70.3077 115.25C70.1114 115.291 69.9151 115.333 69.7188 115.372C69.6 115.398 69.4794 115.421 69.3606 115.443C69.2108 115.472 69.0627 115.5 68.9129 115.529C68.8303 115.546 68.7476 115.56 68.6632 115.574C68.4738 115.608 68.2844 115.643 68.0967 115.675C67.7764 115.731 67.4527 115.784 67.1307 115.832C66.8965 115.868 66.6641 115.903 66.4299 115.935C66.1544 115.975 65.8789 116.011 65.6017 116.046C65.5259 116.058 65.4501 116.066 65.3744 116.075C65.2762 116.087 65.1781 116.099 65.0799 116.111C64.8819 116.135 64.6839 116.158 64.4841 116.178C64.3808 116.19 64.2792 116.201 64.1759 116.211C63.9796 116.232 63.7833 116.251 63.587 116.268C63.3339 116.292 63.0808 116.313 62.8259 116.333C62.516 116.357 62.2078 116.38 61.8961 116.399C61.6963 116.411 61.4966 116.423 61.2951 116.433C60.782 116.461 60.2689 116.48 59.7523 116.493C59.4957 116.5 59.2374 116.505 58.9792 116.509H58.974C58.7174 116.512 58.4591 116.514 58.2008 116.514C55.5833 116.515 52.9687 116.34 50.3747 115.991C48.472 115.736 46.5997 115.39 44.7578 114.954C44.6838 114.937 44.6097 114.92 44.5374 114.901C44.3514 114.858 44.1672 114.811 43.9829 114.765C43.8194 114.723 43.6575 114.68 43.4939 114.637C39.278 113.54 35.1998 111.969 31.3372 109.955C31.3182 109.945 31.2976 109.935 31.2786 109.924C31.1667 109.866 31.0565 109.809 30.9463 109.749C40.3979 107.546 55.3338 104.073 68.2947 101.098C68.6581 101.015 69.0191 100.932 69.3778 100.85C74.1648 99.7511 78.6487 98.7283 82.4421 97.8725C82.8346 97.7846 83.2192 97.6985 83.5957 97.6142C87.6715 96.6981 90.8364 96.0024 92.5532 95.6546C93.0159 95.5489 93.4837 95.4667 93.9548 95.4084L97.5381 100.962L97.545 100.972Z" fill="#2F2E41"/>
<path d="M27.8004 43.9806C32.452 43.9806 36.2229 40.2097 36.2229 35.5581C36.2229 30.9065 32.452 27.1356 27.8004 27.1356C23.1488 27.1356 19.3779 30.9065 19.3779 35.5581C19.3779 40.2097 23.1488 43.9806 27.8004 43.9806Z" fill="#2F2E41"/>
<path d="M79.5387 41.5741C84.1903 41.5741 87.9612 37.8033 87.9612 33.1517C87.9612 28.5001 84.1903 24.7292 79.5387 24.7292C74.8871 24.7292 71.1162 28.5001 71.1162 33.1517C71.1162 37.8033 74.8871 41.5741 79.5387 41.5741Z" fill="#2F2E41"/>
<path d="M70.5142 29.5421C70.5145 27.4647 71.2825 25.4608 72.6706 23.9153C74.0587 22.3699 75.969 21.3919 78.0343 21.1694C76.8581 21.0409 75.668 21.1617 74.5416 21.5239C73.4152 21.8861 72.3777 22.4815 71.4968 23.2715C70.6159 24.0614 69.9113 25.0281 69.4289 26.1085C68.9466 27.1889 68.6973 28.3589 68.6973 29.5421C68.6973 30.7253 68.9466 31.8952 69.4289 32.9757C69.9113 34.0561 70.6159 35.0228 71.4968 35.8127C72.3777 36.6026 73.4152 37.1981 74.5416 37.5603C75.668 37.9225 76.8581 38.0432 78.0343 37.9148C75.969 37.6922 74.0587 36.7143 72.6706 35.1688C71.2825 33.6233 70.5145 31.6194 70.5142 29.5421V29.5421Z" fill="#2F2E41"/>
<path d="M18.3893 42.3709C16.9357 40.8869 16.0818 38.9181 15.9917 36.8427C15.9015 34.7673 16.5816 32.7319 17.9011 31.1275C16.971 31.8589 16.2055 32.7781 15.6544 33.8251C15.1033 34.8721 14.779 36.0235 14.7026 37.2043C14.6262 38.385 14.7995 39.5686 15.2111 40.6779C15.6227 41.7872 16.2634 42.7974 17.0915 43.6425C17.9196 44.4876 18.9165 45.1488 20.0172 45.583C21.1178 46.0171 22.2977 46.2145 23.4797 46.1622C24.6618 46.1099 25.8196 45.8092 26.8776 45.2795C27.9357 44.7499 28.8703 44.0033 29.6205 43.0884C27.9895 44.3749 25.9406 45.0132 23.8675 44.8808C21.7944 44.7484 19.8434 43.8545 18.3893 42.3709V42.3709Z" fill="#2F2E41"/>
<path d="M53.6693 42.7774C43.7015 42.7774 35.6211 47.491 35.6211 53.3055C35.6211 55.9072 37.2453 58.2849 39.9264 60.1218L43.4009 57.6043L42.456 61.5483C42.8481 61.73 43.2484 61.9058 43.6659 62.0683L48.8564 56.0127V63.4521C50.448 63.7071 52.0574 63.8347 53.6693 63.8336C63.637 63.8336 71.7175 59.12 71.7175 53.3055C71.7175 47.491 63.637 42.7774 53.6693 42.7774Z" fill="#2F2E41"/>
<path d="M71.116 33.1517C71.116 33.1517 69.8079 39.1677 77.982 41.5742L71.116 33.1517Z" fill="#2F2E41"/>
<path d="M35.6211 34.2467C35.6211 34.2467 38.6291 40.9726 29.605 43.9806L35.6211 34.2467Z" fill="#2F2E41"/>
<path d="M40.082 72.7348C40.8409 72.5224 41.0427 70.8736 40.5328 69.0522C40.0229 67.2308 38.9944 65.9265 38.2355 66.139C37.4766 66.3515 37.2747 68.0002 37.7846 69.8216C38.2945 71.643 39.323 72.9473 40.082 72.7348Z" fill="#FDB797"/>
<path d="M74.8301 66.6708C74.9464 64.7829 74.4029 63.2133 73.6163 63.1648C72.8297 63.1164 72.0978 64.6075 71.9815 66.4953C71.8652 68.3832 72.4087 69.9528 73.1953 70.0013C73.9819 70.0497 74.7138 68.5586 74.8301 66.6708Z" fill="#FDB797"/>
</g>
<defs>
<clipPath id="clip0_107_507">
<rect width="116.402" height="116.402" fill="white" transform="translate(0 0.112122)"/>
</clipPath>
</defs>
</svg>
