<svg width="117" height="117" viewBox="0 0 117 117" fill="none" xmlns="http://www.w3.org/2000/svg">
<g clip-path="url(#clip0_107_490)">
<path d="M116.402 58.2009C116.412 66.0795 114.817 73.8777 111.715 81.1197L111.522 81.5639C106.274 93.5036 97.1732 103.339 85.676 109.496C74.1787 115.653 60.9488 117.778 48.1019 115.529C47.7523 115.467 47.4033 115.403 47.0549 115.336C43.455 114.638 39.9297 113.599 36.5271 112.231C35.9744 112.009 35.4257 111.779 34.881 111.541C34.509 111.379 34.1371 111.212 33.7686 111.04C23.6884 106.368 15.1538 98.9116 9.17083 89.5499C3.18788 80.1882 0.00591765 69.3112 0 58.2009C0 26.0578 26.0578 0 58.2009 0C90.344 0 116.402 26.0578 116.402 58.2009Z" fill="#03A045"/>
<path opacity="0.2" d="M48.1021 115.529C47.7525 115.467 47.4036 115.403 47.0552 115.336C46.8279 108.739 46.0478 95.1999 43.3875 81.0198C41.9324 73.2591 39.9126 65.3039 37.1111 58.1923C36.1513 55.7316 35.055 53.3264 33.8274 50.9878C30.9965 45.6412 27.563 41.1401 23.3994 38.0906L24.0124 37.2538C27.4752 39.7919 30.5873 43.3551 33.3487 47.9434C34.1769 49.3175 34.9724 50.7835 35.7353 52.3412C36.5532 54.0081 37.3332 55.7776 38.0753 57.6499C38.5489 58.8415 39.0063 60.0744 39.4477 61.3486C41.3694 66.8811 43.0029 73.1937 44.3483 80.2863C44.6462 81.8533 44.9297 83.4587 45.1989 85.1025C47.2842 97.8396 47.9127 109.616 48.1021 115.529Z" fill="black"/>
<path opacity="0.2" d="M34.8811 111.541C34.5091 111.379 34.1372 111.212 33.7687 111.04C33.4088 107.131 32.7476 102.282 31.5388 97.6794C31.0094 95.6122 30.3297 93.5864 29.5052 91.6183C28.126 88.3896 26.3403 85.6449 24.0312 83.9523L24.6443 83.1171C27.0618 84.8873 28.9267 87.6854 30.3679 90.9588C31.9917 94.6471 33.0748 98.9399 33.7963 103.041C34.3318 106.088 34.6693 109.03 34.8811 111.541Z" fill="black"/>
<path opacity="0.2" d="M17.6088 38.0666C20.4701 38.0666 22.7898 35.7469 22.7898 32.8855C22.7898 30.0242 20.4701 27.7045 17.6088 27.7045C14.7474 27.7045 12.4277 30.0242 12.4277 32.8855C12.4277 35.7469 14.7474 38.0666 17.6088 38.0666Z" fill="black"/>
<path opacity="0.2" d="M19.2772 82.6659C22.1386 82.6659 24.4582 80.3463 24.4582 77.4849C24.4582 74.6235 22.1386 72.3039 19.2772 72.3039C16.4158 72.3039 14.0962 74.6235 14.0962 77.4849C14.0962 80.3463 16.4158 82.6659 19.2772 82.6659Z" fill="black"/>
<path opacity="0.2" d="M38.1777 41.5881C37.079 47.7865 39.5044 53.3991 39.5044 53.3991C39.5044 53.3991 43.711 48.9621 44.8096 42.7636C45.9083 36.5651 43.483 30.9525 43.483 30.9525C43.483 30.9525 39.2764 35.3896 38.1777 41.5881Z" fill="black"/>
<path opacity="0.2" d="M20.9587 56.3019C26.8709 58.4638 32.8118 57.0764 32.8118 57.0764C32.8118 57.0764 29.1672 52.1839 23.255 50.0221C17.3428 47.8602 11.4019 49.2475 11.4019 49.2475C11.4019 49.2475 15.0465 54.14 20.9587 56.3019Z" fill="black"/>
<path opacity="0.2" d="M19.9564 95.7961C24.1003 97.3114 28.2703 96.3229 28.2703 96.3229C28.2703 96.3229 25.7216 92.8776 21.5776 91.3623C17.4337 89.847 13.2637 90.8355 13.2637 90.8355C13.2637 90.8355 15.8124 94.2808 19.9564 95.7961Z" fill="black"/>
<path d="M58.0814 71.0893C70.6126 71.0893 80.7711 60.9308 80.7711 48.3996C80.7711 35.8683 70.6126 25.7098 58.0814 25.7098C45.5502 25.7098 35.3916 35.8683 35.3916 48.3996C35.3916 60.9308 45.5502 71.0893 58.0814 71.0893Z" fill="#FDB797"/>
<path d="M49.2183 65.7714C49.2183 65.7714 52.0545 79.2435 52.0545 80.6616C52.0545 82.0797 65.5265 88.4612 65.5265 88.4612L77.5805 86.334L81.8348 73.571C81.8348 73.571 74.7443 62.9352 74.7443 58.6808L49.2183 65.7714Z" fill="#FDB797"/>
<path d="M111.715 81.1197L111.522 81.564C106.274 93.5036 97.1733 103.339 85.6761 109.496C74.1788 115.653 60.9489 117.778 48.102 115.529C47.7524 115.467 47.4034 115.403 47.055 115.336C43.455 114.638 39.9298 113.599 36.5272 112.231C35.9745 112.009 35.4257 111.779 34.881 111.541C34.5091 111.379 34.1372 111.212 33.7687 111.04C30.4286 109.492 27.2431 107.631 24.2551 105.481L21.5654 97.6794L23.0773 96.5257L26.1871 94.1512L29.5052 91.6183L30.3679 90.9588L43.3873 81.0198L44.3482 80.2863L51.1153 75.1206L51.117 75.1188C51.117 75.1188 58.4352 87.0431 69.0715 83.4977C79.7078 79.9523 79.4754 69.786 79.4754 69.786L111.715 81.1197Z" fill="#2F2E41"/>
<path d="M38.4047 30.1191C38.4047 30.1191 45.6086 14.5107 59.4161 18.1126C73.2236 21.7146 81.0278 27.1175 81.6282 32.5205C82.2285 37.9234 81.328 46.0278 81.328 46.0278C81.328 46.0278 79.8272 34.9218 70.222 37.3231C60.6167 39.7244 45.6086 37.9234 45.6086 37.9234L43.2073 59.5352C43.2073 59.5352 40.5058 55.633 37.5042 58.0343C34.5025 60.4356 28.7994 34.9218 38.4047 30.1191Z" fill="#2F2E41"/>
<path d="M36.5269 112.231C35.9741 112.009 35.4254 111.779 34.8807 111.541C34.5088 111.379 34.1368 111.212 33.7683 111.04C28.2443 108.478 23.1552 105.068 18.686 100.932C20.2685 98.7763 21.5651 97.6794 21.5651 97.6794H32.2014L33.7959 103.041L36.5269 112.231Z" fill="#2F2E41"/>
<path d="M102.398 79.9522L111.522 81.564C109.08 87.1266 105.783 92.2727 101.749 96.815L102.398 79.9522Z" fill="#2F2E41"/>
</g>
<defs>
<clipPath id="clip0_107_490">
<rect width="116.402" height="116.402" fill="white"/>
</clipPath>
</defs>
</svg>
