<svg width="236" height="194" viewBox="0 0 236 194" fill="none" xmlns="http://www.w3.org/2000/svg">
<path d="M223.082 25.5677H25.5105V144.319H223.082V25.5677Z" fill="#F2F2F2"/>
<path opacity="0.3" d="M108.447 45.925H44.6165V133.413H108.447V45.925Z" fill="#03A045"/>
<path d="M184.002 52.2261H132.981V55.3767H184.002V52.2261Z" fill="#3F3D56"/>
<path d="M207.233 58.0424H132.981V61.1929H207.233V58.0424Z" fill="#3F3D56"/>
<path d="M184.002 72.0987H132.981V75.2492H184.002V72.0987Z" fill="#3F3D56"/>
<path d="M184.002 95.3641H132.981V98.5147H184.002V95.3641Z" fill="#3F3D56"/>
<path d="M207.233 77.915H132.981V81.0656H207.233V77.915Z" fill="#3F3D56"/>
<path d="M207.233 83.7314H132.981V86.882H207.233V83.7314Z" fill="#3F3D56"/>
<path d="M207.233 89.5478H132.981V92.6983H207.233V89.5478Z" fill="#3F3D56"/>
<path d="M159.685 109.42H132.981V117.66H159.685V109.42Z" fill="#03A045"/>
<path d="M112.572 41.1992H48.7415V128.687H112.572V41.1992Z" fill="#3F3D56"/>
<path d="M103.454 89.5738C103.454 106.565 94.4045 112.498 83.2419 112.498C72.0792 112.498 63.03 106.565 63.03 89.5738C63.03 72.5826 83.2419 50.967 83.2419 50.967C83.2419 50.967 103.454 72.5826 103.454 89.5738Z" fill="#03A045"/>
<path d="M82.5055 109.899L82.7126 95.6785L91.3274 78.0861L82.745 93.4479L82.8381 87.0538L88.7755 74.3259L82.8627 85.3617L83.0301 73.862L89.3879 63.7289L83.0563 72.0536L83.161 50.9671L82.5038 78.882L82.5578 77.7304L76.0938 66.6861L82.4541 79.9408L81.8518 92.7843L81.834 92.4434L74.3821 80.8208L81.8114 93.6476L81.7361 95.2539L81.7226 95.2781L81.7287 95.4099L80.2007 127.994H82.2422L82.4873 111.164L89.8981 98.3685L82.5055 109.899Z" fill="#3F3D56"/>
<path d="M28.5502 194C44.2581 194 56.9918 192.155 56.9918 189.88C56.9918 187.605 44.2581 185.76 28.5502 185.76C12.8424 185.76 0.108643 187.605 0.108643 189.88C0.108643 192.155 12.8424 194 28.5502 194Z" fill="#3F3D56"/>
<path d="M15.1157 75.825L14.1709 78.3297L15.2338 94.5439C15.2338 94.5439 14.6433 95.4667 15.2338 96.1258C15.8242 96.7849 15.7061 97.0485 15.7061 97.0485C15.7061 97.0485 14.7614 97.0485 15.2338 97.8395C15.7061 98.6304 15.7061 99.0259 15.7061 99.0259L15.47 99.8168C15.47 99.8168 15.9423 100.476 15.9423 101.003C15.9423 101.531 19.0128 117.745 19.0128 117.745L21.9652 111.285L20.3119 85.5799L15.1157 75.825Z" fill="#03A045"/>
<path d="M46.181 116.384C46.181 116.384 51.377 120.656 51.56 124.072C51.743 127.488 44.8621 118.985 44.8153 118.026C44.7686 117.068 46.181 116.384 46.181 116.384Z" fill="#FFB9B9"/>
<path d="M13.5805 181.02L12.2815 185.766C12.2815 185.766 10.3919 190.379 12.99 191.039C15.5881 191.698 18.0681 189.193 18.0681 189.193V186.029L19.0129 181.02H13.5805Z" fill="#2F2E41"/>
<path d="M34.838 181.02C34.838 181.02 34.2475 189.984 35.5466 190.511C36.8456 191.038 41.4513 191.17 41.5695 190.511C41.6876 189.852 43.1047 189.193 42.0418 188.27C40.979 187.347 40.2704 181.943 40.2704 181.943L34.838 181.02Z" fill="#2F2E41"/>
<path d="M22.9099 96.1258V100.08C22.9099 100.08 19.0128 109.176 17.5956 123.545C16.1785 137.914 11.3366 181.679 12.5175 182.47C13.6985 183.261 26.4528 183.788 26.8071 182.734C27.1614 181.679 27.5157 150.832 27.5157 150.832L31.8852 129.082C31.8852 129.082 32.7119 136.859 33.4205 138.177C34.129 139.496 32.2395 182.338 33.4205 182.997C34.6014 183.656 50.5443 184.843 50.3081 182.734C50.0719 180.624 44.7576 123.413 44.7576 123.413C44.7576 123.413 42.0414 96.3894 41.2148 96.1258C40.3881 95.8621 32.83 95.5985 31.649 95.8621C30.4681 96.1258 22.9099 96.1258 22.9099 96.1258Z" fill="#2F2E41"/>
<path d="M31.8853 63.4336C35.6029 63.4336 38.6167 60.0695 38.6167 55.9197C38.6167 51.7699 35.6029 48.4058 31.8853 48.4058C28.1676 48.4058 25.1538 51.7699 25.1538 55.9197C25.1538 60.0695 28.1676 63.4336 31.8853 63.4336Z" fill="#FFB9B9"/>
<path d="M33.303 62.2472C33.303 62.2472 29.8782 68.1793 30.7049 69.7611C31.5316 71.343 21.9658 68.1793 21.9658 68.1793C21.9658 68.1793 27.7525 60.2699 27.6344 59.3471C27.5163 58.4244 33.303 62.2472 33.303 62.2472Z" fill="#FFB9B9"/>
<path d="M40.3881 71.0794C40.3881 71.0794 34.1291 68.8384 33.3024 67.9156C32.7721 67.3109 32.2973 66.6485 31.8852 65.9383C31.8852 65.9383 24.3271 64.7519 24.0909 64.7519C23.8547 64.7519 22.0833 67.1247 21.6109 67.652C21.1385 68.1793 15.1157 71.7385 15.1157 72.6612C15.1157 73.584 14.1709 78.3296 14.1709 78.3296C14.1709 78.3296 16.2966 83.2071 17.5957 84.2617C18.8947 85.3163 19.249 85.0526 19.3671 86.7663C19.4852 88.48 21.1385 91.2483 21.1385 91.2483C21.1385 91.2483 22.2014 94.2803 21.9652 95.203C21.729 96.1258 20.6662 96.9167 23.1462 96.6531C25.6262 96.3894 37.9081 97.1804 37.9081 95.7303C37.9081 94.2802 35.5462 80.4388 35.5462 80.4388L40.3881 71.0794Z" fill="#03A045"/>
<path d="M38.1446 71.343L40.3884 71.0793C40.3884 71.0793 41.215 71.6066 41.3331 76.7477C41.4512 81.8889 41.4512 94.2802 42.2779 95.3348C43.1046 96.3894 46.5293 112.736 46.5293 112.736C46.5293 112.736 47.4741 112.999 47.4741 113.922C47.4741 114.845 48.537 115.636 48.0646 116.69C47.5922 117.745 48.537 117.481 47.9465 118.14C47.356 118.799 44.5217 120.118 44.4036 119.327C44.2855 118.536 44.7579 118.404 44.2855 118.14C43.8131 117.877 43.8131 117.745 43.695 116.822C43.577 115.899 42.5141 114.976 42.6322 114.581C42.7503 114.186 37.436 102.717 37.436 102.321C37.436 101.926 37.0817 100.476 36.6093 100.212C36.1369 99.9487 35.4284 99.685 35.7827 99.0259C36.1369 98.3668 34.8379 78.5933 34.8379 78.5933L38.1446 71.343Z" fill="#03A045"/>
<path d="M37.5777 51.1545C35.5135 48.6533 32.2719 47.3258 29.2991 48.0697C26.3263 48.8137 23.823 51.7598 23.5906 55.1506C23.543 55.8442 23.5826 56.5527 23.4219 57.2248C23.1514 58.3552 22.3467 59.2512 22.063 60.3775C21.873 61.1319 21.9293 61.9442 21.728 62.6949C21.3558 64.0821 20.2041 64.9866 19.3262 66.0527C18.9707 66.4434 18.7067 66.9257 18.5574 67.457C18.4802 67.9283 18.4606 68.409 18.4992 68.8861C18.5362 71.4577 17.6797 73.9454 16.1094 75.8274C17.0327 75.0617 18.0303 74.4143 19.0833 73.8975C18.5614 75.7528 19.0386 77.948 20.3518 79.2257C21.6651 80.5034 23.7685 80.702 25.1885 79.5753C26.032 78.9061 26.5799 77.8788 27.1032 76.8821L29.0845 73.1086C29.4429 72.426 29.817 71.7236 30.3897 71.2574C30.8447 70.8869 31.3977 70.6897 31.8557 70.3239C33.0112 69.401 33.3215 67.5947 33.1063 66.027C32.8912 64.4593 32.2596 63.0038 31.8974 61.4702C31.6109 60.2572 31.521 58.8672 32.1655 57.8396C33.021 56.4756 34.7792 56.3016 35.9418 55.2582C36.3795 54.8654 36.575 54.3874 36.8885 53.8957C37.1779 53.4418 37.2516 53.6045 37.7 53.5838C38.9313 53.5268 38.034 51.7073 37.5777 51.1545Z" fill="#2F2E41"/>
<path d="M31.6983 59.9813C31.9981 59.9813 32.2411 59.3303 32.2411 58.5272C32.2411 57.7241 31.9981 57.0731 31.6983 57.0731C31.3985 57.0731 31.1555 57.7241 31.1555 58.5272C31.1555 59.3303 31.3985 59.9813 31.6983 59.9813Z" fill="#FFB9B9"/>
<path d="M146.333 175.945C150.17 175.945 153.281 172.473 153.281 168.19C153.281 163.907 150.17 160.435 146.333 160.435C142.496 160.435 139.385 163.907 139.385 168.19C139.385 172.473 142.496 175.945 146.333 175.945Z" fill="#F2F2F2"/>
<path d="M6.94756 23.2655C10.7846 23.2655 13.8951 19.7934 13.8951 15.5103C13.8951 11.2273 10.7846 7.75516 6.94756 7.75516C3.11053 7.75516 0 11.2273 0 15.5103C0 19.7934 3.11053 23.2655 6.94756 23.2655Z" fill="#F2F2F2"/>
<path d="M229.053 15.5103C232.89 15.5103 236 12.0382 236 7.75515C236 3.4721 232.89 0 229.053 0C225.216 0 222.105 3.4721 222.105 7.75515C222.105 12.0382 225.216 15.5103 229.053 15.5103Z" fill="#F2F2F2"/>
</svg>
