<svg width="238" height="195" viewBox="0 0 238 195" fill="none" xmlns="http://www.w3.org/2000/svg">
<g clip-path="url(#clip0_43_57)">
<path opacity="0.1" d="M232.773 194.272C234.784 192.253 232.456 186.64 227.574 181.737C222.691 176.834 217.102 174.496 215.091 176.516C213.08 178.536 215.408 184.148 220.29 189.051C225.173 193.955 230.762 196.292 232.773 194.272Z" fill="#03A045"/>
<path d="M224.817 186.214C226.344 186.214 227.582 184.586 227.582 182.579C227.582 180.571 226.344 178.944 224.817 178.944C223.291 178.944 222.053 180.571 222.053 182.579C222.053 184.586 223.291 186.214 224.817 186.214Z" fill="#3F3D56"/>
<path d="M224.817 181.772C226.344 181.772 227.582 180.144 227.582 178.137C227.582 176.129 226.344 174.502 224.817 174.502C223.291 174.502 222.053 176.129 222.053 178.137C222.053 180.144 223.291 181.772 224.817 181.772Z" fill="#3F3D56"/>
<path d="M224.817 177.329C226.344 177.329 227.582 175.702 227.582 173.694C227.582 171.687 226.344 170.059 224.817 170.059C223.291 170.059 222.053 171.687 222.053 173.694C222.053 175.702 223.291 177.329 224.817 177.329Z" fill="#3F3D56"/>
<path d="M224.817 172.887C226.344 172.887 227.582 171.26 227.582 169.252C227.582 167.245 226.344 165.617 224.817 165.617C223.291 165.617 222.053 167.245 222.053 169.252C222.053 171.26 223.291 172.887 224.817 172.887Z" fill="#3F3D56"/>
<path d="M224.817 168.445C226.344 168.445 227.582 166.818 227.582 164.81C227.582 162.802 226.344 161.175 224.817 161.175C223.291 161.175 222.053 162.802 222.053 164.81C222.053 166.818 223.291 168.445 224.817 168.445Z" fill="#3F3D56"/>
<path d="M224.817 164.003C226.344 164.003 227.582 162.375 227.582 160.368C227.582 158.36 226.344 156.733 224.817 156.733C223.291 156.733 222.053 158.36 222.053 160.368C222.053 162.375 223.291 164.003 224.817 164.003Z" fill="#3F3D56"/>
<path d="M224.817 159.561C226.344 159.561 227.582 157.933 227.582 155.925C227.582 153.918 226.344 152.29 224.817 152.29C223.291 152.29 222.053 153.918 222.053 155.925C222.053 157.933 223.291 159.561 224.817 159.561Z" fill="#3F3D56"/>
<path d="M235.166 125.526C235.545 125.043 235.889 124.535 236.197 124.005L228.932 122.807L236.789 122.864C237.543 121.217 237.955 119.433 237.999 117.621C238.043 115.81 237.719 114.008 237.047 112.326L226.507 117.819L236.223 110.642C235.313 109.06 234.088 107.683 232.625 106.597C231.161 105.512 229.491 104.74 227.718 104.332C225.945 103.923 224.107 103.885 222.319 104.221C220.53 104.557 218.83 105.259 217.324 106.284C215.818 107.309 214.539 108.634 213.565 110.178C212.592 111.721 211.945 113.449 211.666 115.255C211.387 117.06 211.481 118.904 211.943 120.671C212.405 122.438 213.224 124.091 214.35 125.526C213.761 126.277 213.255 127.09 212.84 127.95L222.269 132.866L212.222 129.477C211.516 131.572 211.342 133.812 211.715 135.992C212.088 138.173 212.996 140.226 214.358 141.965C212.821 143.927 211.865 146.283 211.6 148.764C211.334 151.245 211.769 153.752 212.854 155.996C213.94 158.241 215.633 160.134 217.739 161.458C219.846 162.782 222.281 163.485 224.766 163.485C227.251 163.485 229.686 162.782 231.792 161.458C233.899 160.134 235.592 158.241 236.677 155.996C237.763 153.752 238.198 151.245 237.932 148.764C237.666 146.283 236.71 143.927 235.174 141.965C237.01 139.621 238.008 136.725 238.008 133.743C238.008 130.761 237.01 127.865 235.174 125.521L235.166 125.526Z" fill="#03A045"/>
<path opacity="0.1" d="M211.515 133.748C211.51 136.731 212.509 139.628 214.349 141.97C212.813 143.932 211.857 146.288 211.591 148.769C211.326 151.25 211.76 153.757 212.846 156.002C213.932 158.246 215.625 160.139 217.731 161.463C219.838 162.788 222.273 163.49 224.758 163.49C227.243 163.49 229.678 162.788 231.784 161.463C233.891 160.139 235.584 158.246 236.669 156.002C237.755 153.757 238.19 151.25 237.924 148.769C237.658 146.288 236.702 143.932 235.166 141.97C236.941 139.709 211.515 132.255 211.515 133.748Z" fill="black"/>
<path d="M218.206 0V186.279L155.344 177.482L78.928 193.137L78.3123 193.264L17.5112 176.447V14.4883L80.631 0L149.676 14.4883L152.301 13.9321L218.206 0Z" fill="#444053"/>
<path d="M207.643 10.1729V176.843L151.4 168.973L83.027 182.98L82.4757 183.091L28.0742 168.047V23.1347L84.5522 10.1729L146.327 23.1347L148.677 22.638L207.643 10.1729Z" fill="white"/>
<path opacity="0.1" d="M155.344 177.482L78.9282 193.137L80.6312 0L149.676 14.4883L152.302 13.9321L155.344 177.482Z" fill="black"/>
<g opacity="0.3">
<path opacity="0.3" d="M147.713 35.7034L147.744 89.9053H170.158V67.6553H208.545L213.054 61.8496" stroke="#444053" stroke-width="3" stroke-miterlimit="10"/>
<path opacity="0.3" d="M22.9214 52.9082H106.265L111.418 50.5798H113.479V102.841H149.547L151.093 107.498V131.042H178.917V160.148" stroke="#444053" stroke-width="3" stroke-miterlimit="10"/>
<path opacity="0.3" d="M124.488 160.148V102.841" stroke="#444053" stroke-width="3" stroke-miterlimit="10"/>
<path opacity="0.3" d="M213.054 144.795H124.488" stroke="#444053" stroke-width="3" stroke-miterlimit="10"/>
<path opacity="0.3" d="M190.871 35.7034V160.148" stroke="#444053" stroke-width="3" stroke-miterlimit="10"/>
<path opacity="0.3" d="M22.6638 133.795H213.054" stroke="#444053" stroke-width="3" stroke-miterlimit="10"/>
<path opacity="0.3" d="M45.8354 160.148V35.7034" stroke="#444053" stroke-width="3" stroke-miterlimit="10"/>
<path opacity="0.3" d="M90.0913 35.7034V160.148" stroke="#444053" stroke-width="3" stroke-miterlimit="10"/>
<path opacity="0.3" d="M22.9214 67.1379L170.158 67.6553" stroke="#444053" stroke-width="3" stroke-miterlimit="10"/>
<path opacity="0.3" d="M65.7732 35.9285V160.148" stroke="#444053" stroke-width="3" stroke-miterlimit="10"/>
<path opacity="0.3" d="M22.6638 95.9386H90.0911L124.488 133.795" stroke="#444053" stroke-width="3" stroke-miterlimit="10"/>
<path opacity="0.3" d="M131.938 35.7034V102.841" stroke="#444053" stroke-width="3" stroke-miterlimit="10"/>
<path opacity="0.3" d="M124.488 114.867H213.054" stroke="#444053" stroke-width="3" stroke-miterlimit="10"/>
</g>
<path d="M150.964 114.354H124.944V102.971L149.547 102.841L151.093 107.24L150.964 114.354Z" fill="#03A045"/>
<path d="M138.083 55.3662C134.306 55.3662 130.683 56.873 128.012 59.5551C125.342 62.2373 123.841 65.875 123.841 69.6682C123.841 77.5669 138.083 103.229 138.083 103.229C138.083 103.229 152.325 77.5772 152.325 69.6682C152.325 65.875 150.824 62.2373 148.153 59.5551C145.483 56.873 141.86 55.3662 138.083 55.3662ZM138.083 75.7688C136.844 75.7688 135.632 75.3998 134.602 74.7084C133.572 74.017 132.769 73.0343 132.294 71.8846C131.82 70.7349 131.696 69.4697 131.938 68.2492C132.179 67.0287 132.776 65.9075 133.652 65.0276C134.529 64.1476 135.645 63.5483 136.861 63.3056C138.076 63.0628 139.336 63.1874 140.481 63.6636C141.626 64.1399 142.604 64.9463 143.293 65.981C143.981 67.0158 144.349 68.2323 144.349 69.4767C144.348 71.145 143.687 72.7448 142.512 73.9242C141.338 75.1036 139.744 75.7662 138.083 75.7662V75.7688Z" fill="#03A045"/>
<path opacity="0.1" d="M138.083 55.3662C134.306 55.3662 130.683 56.873 128.012 59.5551C125.342 62.2373 123.841 65.875 123.841 69.6682C123.841 77.5669 138.083 103.229 138.083 103.229C138.083 103.229 152.325 77.5772 152.325 69.6682C152.325 65.875 150.824 62.2373 148.153 59.5551C145.483 56.873 141.86 55.3662 138.083 55.3662ZM138.083 75.7688C136.844 75.7688 135.632 75.3998 134.602 74.7084C133.572 74.017 132.769 73.0343 132.294 71.8846C131.82 70.7349 131.696 69.4697 131.938 68.2492C132.179 67.0287 132.776 65.9075 133.652 65.0276C134.529 64.1476 135.645 63.5483 136.861 63.3056C138.076 63.0628 139.336 63.1874 140.481 63.6636C141.626 64.1399 142.604 64.9463 143.293 65.981C143.981 67.0158 144.349 68.2323 144.349 69.4767C144.348 71.145 143.687 72.7448 142.512 73.9242C141.338 75.1036 139.744 75.7662 138.083 75.7662V75.7688Z" fill="black"/>
<path d="M138.083 57.4358C134.306 57.4358 130.683 58.9427 128.012 61.6248C125.342 64.307 123.841 67.9448 123.841 71.7379C123.841 79.6366 138.083 105.299 138.083 105.299C138.083 105.299 152.325 79.647 152.325 71.7379C152.325 67.9448 150.824 64.307 148.153 61.6248C145.483 58.9427 141.86 57.4358 138.083 57.4358ZM138.083 77.8385C136.844 77.8385 135.632 77.4695 134.602 76.7781C133.572 76.0867 132.769 75.1041 132.294 73.9543C131.82 72.8046 131.696 71.5395 131.938 70.3189C132.179 69.0984 132.776 67.9772 133.652 67.0973C134.529 66.2173 135.645 65.6181 136.861 65.3753C138.076 65.1325 139.336 65.2571 140.481 65.7333C141.626 66.2096 142.604 67.016 143.293 68.0508C143.981 69.0855 144.349 70.302 144.349 71.5465C144.348 73.2148 143.687 74.8145 142.512 75.994C141.338 77.1734 139.744 77.8359 138.083 77.8359V77.8385Z" fill="#03A045"/>
<path opacity="0.1" d="M133.255 193.025C137.627 191.134 140.542 188.135 139.766 186.327C138.991 184.519 134.818 184.585 130.447 186.476C126.076 188.366 123.161 191.365 123.936 193.173C124.712 194.982 128.884 194.915 133.255 193.025Z" fill="#03A045"/>
<path d="M131.75 190.845C132.803 190.845 133.657 189.724 133.657 188.341C133.657 186.957 132.803 185.836 131.75 185.836C130.697 185.836 129.844 186.957 129.844 188.341C129.844 189.724 130.697 190.845 131.75 190.845Z" fill="#3F3D56"/>
<path d="M131.75 187.782C132.803 187.782 133.657 186.66 133.657 185.277C133.657 183.894 132.803 182.773 131.75 182.773C130.697 182.773 129.844 183.894 129.844 185.277C129.844 186.66 130.697 187.782 131.75 187.782Z" fill="#3F3D56"/>
<path d="M131.75 184.721C132.803 184.721 133.657 183.6 133.657 182.217C133.657 180.833 132.803 179.712 131.75 179.712C130.697 179.712 129.844 180.833 129.844 182.217C129.844 183.6 130.697 184.721 131.75 184.721Z" fill="#3F3D56"/>
<path d="M131.75 181.66C132.803 181.66 133.657 180.539 133.657 179.156C133.657 177.773 132.803 176.652 131.75 176.652C130.697 176.652 129.844 177.773 129.844 179.156C129.844 180.539 130.697 181.66 131.75 181.66Z" fill="#3F3D56"/>
<path d="M131.75 178.597C132.803 178.597 133.657 177.476 133.657 176.093C133.657 174.71 132.803 173.588 131.75 173.588C130.697 173.588 129.844 174.71 129.844 176.093C129.844 177.476 130.697 178.597 131.75 178.597Z" fill="#3F3D56"/>
<path d="M131.75 175.536C132.803 175.536 133.657 174.415 133.657 173.032C133.657 171.649 132.803 170.528 131.75 170.528C130.697 170.528 129.844 171.649 129.844 173.032C129.844 174.415 130.697 175.536 131.75 175.536Z" fill="#3F3D56"/>
<path d="M131.75 172.476C132.803 172.476 133.657 171.355 133.657 169.971C133.657 168.588 132.803 167.467 131.75 167.467C130.697 167.467 129.844 168.588 129.844 169.971C129.844 171.355 130.697 172.476 131.75 172.476Z" fill="#3F3D56"/>
<path d="M124.616 149.018C124.356 148.689 124.119 148.343 123.905 147.983L128.914 147.155L123.503 147.196C122.984 146.061 122.701 144.832 122.671 143.583C122.641 142.335 122.865 141.093 123.328 139.934L130.593 143.706L123.895 138.759C124.522 137.669 125.366 136.721 126.375 135.973C127.383 135.225 128.534 134.694 129.756 134.412C130.978 134.131 132.244 134.105 133.477 134.337C134.709 134.568 135.88 135.052 136.918 135.759C137.956 136.465 138.838 137.378 139.508 138.442C140.179 139.505 140.625 140.696 140.817 141.94C141.01 143.184 140.945 144.454 140.627 145.672C140.309 146.89 139.744 148.029 138.969 149.018C139.371 149.536 139.716 150.096 139.999 150.689L133.505 154.081L140.435 151.752C140.921 153.197 141.042 154.74 140.785 156.243C140.528 157.746 139.902 159.161 138.964 160.36C140.023 161.712 140.682 163.336 140.865 165.046C141.049 166.757 140.749 168.485 140.001 170.032C139.252 171.58 138.086 172.884 136.634 173.797C135.182 174.71 133.503 175.194 131.79 175.194C130.077 175.194 128.398 174.71 126.946 173.797C125.494 172.884 124.327 171.58 123.579 170.032C122.831 168.485 122.531 166.757 122.715 165.046C122.898 163.336 123.557 161.712 124.616 160.36C123.351 158.744 122.663 156.748 122.663 154.693C122.663 152.637 123.351 150.641 124.616 149.025V149.018Z" fill="#03A045"/>
<path opacity="0.1" d="M140.917 154.676C140.92 156.732 140.232 158.73 138.964 160.344C140.023 161.696 140.682 163.321 140.865 165.031C141.049 166.741 140.749 168.469 140.001 170.017C139.253 171.564 138.086 172.869 136.634 173.782C135.182 174.695 133.503 175.179 131.79 175.179C130.077 175.179 128.398 174.695 126.946 173.782C125.494 172.869 124.327 171.564 123.579 170.017C122.831 168.469 122.531 166.741 122.715 165.031C122.898 163.321 123.557 161.696 124.616 160.344C123.392 158.792 140.917 153.656 140.917 154.676Z" fill="black"/>
<path opacity="0.1" d="M21.2569 188.58C23.2682 186.56 20.9404 180.948 16.0577 176.045C11.175 171.142 5.58645 168.804 3.57523 170.824C1.56401 172.843 3.89177 178.456 8.77444 183.359C13.6571 188.262 19.2457 190.6 21.2569 188.58Z" fill="#03A045"/>
<path d="M13.3017 180.522C14.8285 180.522 16.0661 178.895 16.0661 176.887C16.0661 174.879 14.8285 173.252 13.3017 173.252C11.775 173.252 10.5374 174.879 10.5374 176.887C10.5374 178.895 11.775 180.522 13.3017 180.522Z" fill="#3F3D56"/>
<path d="M13.3017 176.08C14.8285 176.08 16.0661 174.452 16.0661 172.445C16.0661 170.437 14.8285 168.81 13.3017 168.81C11.775 168.81 10.5374 170.437 10.5374 172.445C10.5374 174.452 11.775 176.08 13.3017 176.08Z" fill="#3F3D56"/>
<path d="M13.3017 171.638C14.8285 171.638 16.0661 170.01 16.0661 168.003C16.0661 165.995 14.8285 164.368 13.3017 164.368C11.775 164.368 10.5374 165.995 10.5374 168.003C10.5374 170.01 11.775 171.638 13.3017 171.638Z" fill="#3F3D56"/>
<path d="M13.3017 167.195C14.8285 167.195 16.0661 165.568 16.0661 163.56C16.0661 161.553 14.8285 159.925 13.3017 159.925C11.775 159.925 10.5374 161.553 10.5374 163.56C10.5374 165.568 11.775 167.195 13.3017 167.195Z" fill="#3F3D56"/>
<path d="M13.3017 162.753C14.8285 162.753 16.0661 161.126 16.0661 159.118C16.0661 157.111 14.8285 155.483 13.3017 155.483C11.775 155.483 10.5374 157.111 10.5374 159.118C10.5374 161.126 11.775 162.753 13.3017 162.753Z" fill="#3F3D56"/>
<path d="M13.3017 158.311C14.8285 158.311 16.0661 156.683 16.0661 154.676C16.0661 152.668 14.8285 151.041 13.3017 151.041C11.775 151.041 10.5374 152.668 10.5374 154.676C10.5374 156.683 11.775 158.311 13.3017 158.311Z" fill="#3F3D56"/>
<path d="M13.3017 153.869C14.8285 153.869 16.0661 152.241 16.0661 150.234C16.0661 148.226 14.8285 146.599 13.3017 146.599C11.775 146.599 10.5374 148.226 10.5374 150.234C10.5374 152.241 11.775 153.869 13.3017 153.869Z" fill="#3F3D56"/>
<path d="M23.6504 119.834C24.0286 119.352 24.373 118.843 24.6809 118.313L17.4157 117.115L25.2734 117.172C26.0272 115.525 26.4388 113.741 26.4831 111.93C26.5274 110.118 26.2035 108.316 25.5311 106.634L14.9914 112.127L24.7066 104.95C23.7966 103.368 22.5718 101.991 21.1086 100.906C19.6454 99.8199 17.9751 99.0486 16.202 98.6397C14.4289 98.2309 12.5909 98.1933 10.8026 98.5292C9.01437 98.8651 7.31421 99.5674 5.80815 100.592C4.30208 101.617 3.02241 102.943 2.04892 104.486C1.07543 106.029 0.428991 107.758 0.149921 109.563C-0.129149 111.368 -0.0348688 113.212 0.426878 114.979C0.888625 116.746 1.70794 118.399 2.83374 119.834C2.24481 120.585 1.73861 121.398 1.32402 122.258L10.7533 127.174L0.705699 123.785C0.000194424 125.881 -0.173981 128.12 0.198923 130.3C0.571827 132.481 1.48005 134.534 2.84147 136.273C1.30507 138.235 0.349326 140.591 0.0834966 143.072C-0.182333 145.553 0.252482 148.06 1.33823 150.304C2.42398 152.549 4.11684 154.442 6.22326 155.766C8.32969 157.09 10.7647 157.793 13.2498 157.793C15.7349 157.793 18.1699 157.09 20.2763 155.766C22.3827 154.442 24.0756 152.549 25.1613 150.304C26.2471 148.06 26.6819 145.553 26.4161 143.072C26.1502 140.591 25.1945 138.235 23.6581 136.273C25.4939 133.929 26.4919 131.033 26.4919 128.051C26.4919 125.069 25.4939 122.173 23.6581 119.829L23.6504 119.834Z" fill="#03A045"/>
<path opacity="0.1" d="M-0.000225614 128.056C-0.00520434 131.039 0.993425 133.937 2.83372 136.278C1.29733 138.24 0.341581 140.596 0.0757516 143.077C-0.190078 145.559 0.244737 148.065 1.33049 150.31C2.41624 152.555 4.1091 154.447 6.21552 155.772C8.32194 157.096 10.7569 157.798 13.242 157.798C15.7272 157.798 18.1621 157.096 20.2685 155.772C22.375 154.447 24.0678 152.555 25.1536 150.31C26.2393 148.065 26.6741 145.559 26.4083 143.077C26.1425 140.596 25.1867 138.24 23.6503 136.278C25.4254 134.017 -0.000225614 126.563 -0.000225614 128.056Z" fill="black"/>
</g>
<defs>
<clipPath id="clip0_43_57">
<rect width="238" height="195" fill="white"/>
</clipPath>
</defs>
</svg>
